# xmcd
#
# Track frame offsets:
#	150
#	15035
#	33527
#	50172
#	71880
#	91170
#	106897
#	117932
#	132782
#	157882
#	169080
#
# Disc length: 2389 seconds
#
# Revision: 2
# Processed by: cddbd v1.4b42PL0 Copyright (c) Steve Scherf et al.
# Submitted via: EZCDDA 4.3.2
#
DISCID=8509530b
DTITLE=Patrik Ömalm - "Hoodoo Trail"
DYEAR=1900
DGENRE=
TTITLE0=MAY YOU TRAVEL A SAFE ROAD
TTITLE1=TROUBLE
TTITLE2=HAMMERHEAD SHARK
TTITLE3=LOST WITHOUT YOUR LOVE
TTITLE4=MORNINGSTAR
TTITLE5=IF YOU CAN'T SEND ME SOME LOVIN'
TTITLE6=LAST CHAPTER READ
TTITLE7=SOME GUYS NEVER LEARN
TTITLE8=EVERY BAD THING
TTITLE9=BOOTLEG BLUES
TTITLE10=THE OTHER HALF OF ME
EXTD=
EXTT0=
EXTT1=
EXTT2=
EXTT3=
EXTT4=
EXTT5=
EXTT6=
EXTT7=
EXTT8=
EXTT9=
EXTT10=
PLAYORDER=
